<svg xmlns="http://www.w3.org/2000/svg" width="362" height="35" viewBox="0 0 362 35"><rect class="svg__rect" x="0" y="0" width="77.08" height="35" fill="#C13B3A"/><rect class="svg__rect" x="75.08" y="0" width="286.92" height="35" fill="#389AD5"/><path class="svg__text" d="M15.70 22L14.22 22L14.22 13.47L15.70 13.47L15.70 17.02L19.51 17.02L19.51 13.47L20.99 13.47L20.99 22L19.51 22L19.51 18.21L15.70 18.21L15.70 22ZM27.21 22L25.73 22L25.73 13.47L28.73 13.47Q30.21 13.47 31.01 14.13Q31.81 14.79 31.81 16.05L31.81 16.05Q31.81 16.90 31.40 17.48Q30.99 18.06 30.25 18.37L30.25 18.37L32.16 21.92L32.16 22L30.58 22L28.87 18.71L27.21 18.71L27.21 22ZM27.21 14.66L27.21 17.52L28.74 17.52Q29.49 17.52 29.91 17.15Q30.33 16.77 30.33 16.11L30.33 16.11Q30.33 15.43 29.94 15.05Q29.55 14.68 28.78 14.66L28.78 14.66L27.21 14.66ZM37.69 22L36.21 22L36.21 13.47L37.69 13.47L41.50 19.54L41.50 13.47L42.98 13.47L42.98 22L41.49 22L37.69 15.95L37.69 22ZM53.29 22L47.72 22L47.72 13.47L53.25 13.47L53.25 14.66L49.20 14.66L49.20 17.02L52.70 17.02L52.70 18.19L49.20 18.19L49.20 20.82L53.29 20.82L53.29 22ZM59.17 14.66L56.53 14.66L56.53 13.47L63.30 13.47L63.30 14.66L60.64 14.66L60.64 22L59.17 22L59.17 14.66Z" fill="#FFFFFF"/><path class="svg__text" d="M91.65 22L89.27 22L89.27 13.60L93.11 13.60Q94.25 13.60 95.09 13.98Q95.93 14.35 96.39 15.06Q96.84 15.76 96.84 16.71L96.84 16.71Q96.84 17.66 96.39 18.35Q95.93 19.05 95.09 19.42Q94.25 19.80 93.11 19.80L93.11 19.80L91.65 19.80L91.65 22ZM91.65 15.47L91.65 17.93L92.97 17.93Q93.70 17.93 94.07 17.61Q94.44 17.29 94.44 16.71L94.44 16.71Q94.44 16.12 94.07 15.80Q93.70 15.47 92.97 15.47L92.97 15.47L91.65 15.47ZM103.97 22L101.60 22L101.60 13.60L105.44 13.60Q106.58 13.60 107.42 13.98Q108.26 14.35 108.72 15.06Q109.17 15.76 109.17 16.71L109.17 16.71Q109.17 17.62 108.74 18.30Q108.32 18.98 107.53 19.36L107.53 19.36L109.34 22L106.79 22L105.27 19.77L103.97 19.77L103.97 22ZM103.97 15.47L103.97 17.93L105.29 17.93Q106.03 17.93 106.40 17.61Q106.77 17.29 106.77 16.71L106.77 16.71Q106.77 16.12 106.40 15.79Q106.03 15.47 105.29 15.47L105.29 15.47L103.97 15.47ZM113.53 17.80L113.53 17.80Q113.53 16.55 114.14 15.55Q114.74 14.56 115.80 14.00Q116.87 13.43 118.20 13.43L118.20 13.43Q119.53 13.43 120.59 14.00Q121.65 14.56 122.26 15.55Q122.87 16.55 122.87 17.80L122.87 17.80Q122.87 19.05 122.26 20.04Q121.65 21.04 120.59 21.60Q119.53 22.17 118.20 22.17L118.20 22.17Q116.87 22.17 115.80 21.60Q114.74 21.04 114.14 20.04Q113.53 19.05 113.53 17.80ZM115.93 17.80L115.93 17.80Q115.93 18.51 116.23 19.05Q116.53 19.60 117.05 19.90Q117.56 20.20 118.20 20.20L118.20 20.20Q118.83 20.20 119.35 19.90Q119.87 19.60 120.16 19.05Q120.46 18.51 120.46 17.80L120.46 17.80Q120.46 17.09 120.16 16.54Q119.87 16 119.35 15.70Q118.83 15.40 118.20 15.40L118.20 15.40Q117.56 15.40 117.04 15.70Q116.53 16 116.23 16.54Q115.93 17.09 115.93 17.80ZM126.52 20.93L126.52 20.93L127.81 19.40Q128.48 20.27 129.25 20.27L129.25 20.27Q129.26 20.27 129.26 20.27L129.26 20.27Q129.78 20.27 130.05 19.96Q130.32 19.65 130.32 19.05L130.32 19.05L130.32 15.44L127.42 15.44L127.42 13.60L132.67 13.60L132.67 18.91Q132.67 20.54 131.85 21.36Q131.03 22.17 129.43 22.17L129.43 22.17Q128.51 22.17 127.75 21.85Q127.00 21.53 126.52 20.93ZM144.50 22L137.76 22L137.76 13.60L144.35 13.60L144.35 15.44L140.12 15.44L140.12 16.85L143.85 16.85L143.85 18.63L140.12 18.63L140.12 20.17L144.50 20.17L144.50 22ZM148.88 17.80L148.88 17.80Q148.88 16.54 149.48 15.54Q150.08 14.55 151.13 13.99Q152.18 13.43 153.50 13.43L153.50 13.43Q154.65 13.43 155.58 13.84Q156.50 14.25 157.11 15.02L157.11 15.02L155.60 16.39Q154.79 15.40 153.62 15.40L153.62 15.40Q152.94 15.40 152.40 15.70Q151.87 16 151.57 16.54Q151.28 17.09 151.28 17.80L151.28 17.80Q151.28 18.51 151.57 19.05Q151.87 19.60 152.40 19.90Q152.94 20.20 153.62 20.20L153.62 20.20Q154.79 20.20 155.60 19.22L155.60 19.22L157.11 20.58Q156.50 21.35 155.58 21.76Q154.65 22.17 153.50 22.17L153.50 22.17Q152.18 22.17 151.13 21.61Q150.08 21.05 149.48 20.05Q148.88 19.06 148.88 17.80ZM163.44 15.48L160.86 15.48L160.86 13.60L168.38 13.60L168.38 15.48L165.81 15.48L165.81 22L163.44 22L163.44 15.48ZM179.30 17.80L179.30 17.80Q179.30 16.55 179.90 15.55Q180.50 14.56 181.57 14.00Q182.63 13.43 183.96 13.43L183.96 13.43Q185.29 13.43 186.35 14.00Q187.42 14.56 188.02 15.55Q188.63 16.55 188.63 17.80L188.63 17.80Q188.63 19.05 188.02 20.04Q187.42 21.04 186.36 21.60Q185.30 22.17 183.96 22.17L183.96 22.17Q182.63 22.17 181.57 21.60Q180.50 21.04 179.90 20.04Q179.30 19.05 179.30 17.80ZM181.69 17.80L181.69 17.80Q181.69 18.51 182.00 19.05Q182.30 19.60 182.81 19.90Q183.33 20.20 183.96 20.20L183.96 20.20Q184.60 20.20 185.12 19.90Q185.63 19.60 185.93 19.05Q186.23 18.51 186.23 17.80L186.23 17.80Q186.23 17.09 185.93 16.54Q185.63 16 185.12 15.70Q184.60 15.40 183.96 15.40L183.96 15.40Q183.32 15.40 182.81 15.70Q182.30 16 182.00 16.54Q181.69 17.09 181.69 17.80ZM195.74 22L193.36 22L193.36 13.60L197.20 13.60Q198.34 13.60 199.18 13.98Q200.02 14.35 200.48 15.06Q200.94 15.76 200.94 16.71L200.94 16.71Q200.94 17.66 200.48 18.35Q200.02 19.05 199.18 19.42Q198.34 19.80 197.20 19.80L197.20 19.80L195.74 19.80L195.74 22ZM195.74 15.47L195.74 17.93L197.06 17.93Q197.79 17.93 198.16 17.61Q198.53 17.29 198.53 16.71L198.53 16.71Q198.53 16.12 198.16 15.80Q197.79 15.47 197.06 15.47L197.06 15.47L195.74 15.47ZM212.43 22L205.69 22L205.69 13.60L212.28 13.60L212.28 15.44L208.04 15.44L208.04 16.85L211.78 16.85L211.78 18.63L208.04 18.63L208.04 20.17L212.43 20.17L212.43 22ZM219.57 22L217.24 22L217.24 13.60L219.19 13.60L222.90 18.07L222.90 13.60L225.23 13.60L225.23 22L223.28 22L219.57 17.52L219.57 22ZM229.96 17.80L229.96 17.80Q229.96 16.54 230.56 15.54Q231.16 14.55 232.21 13.99Q233.26 13.43 234.58 13.43L234.58 13.43Q235.73 13.43 236.66 13.84Q237.58 14.25 238.20 15.02L238.20 15.02L236.68 16.39Q235.87 15.40 234.70 15.40L234.70 15.40Q234.02 15.40 233.48 15.70Q232.95 16 232.66 16.54Q232.36 17.09 232.36 17.80L232.36 17.80Q232.36 18.51 232.66 19.05Q232.95 19.60 233.48 19.90Q234.02 20.20 234.70 20.20L234.70 20.20Q235.87 20.20 236.68 19.22L236.68 19.22L238.20 20.58Q237.59 21.35 236.66 21.76Q235.73 22.17 234.58 22.17L234.58 22.17Q233.26 22.17 232.21 21.61Q231.16 21.05 230.56 20.05Q229.96 19.06 229.96 17.80ZM249.12 22L242.73 22L242.73 13.60L245.11 13.60L245.11 20.11L249.12 20.11L249.12 22ZM254.95 22L252.53 22L256.24 13.60L258.58 13.60L262.30 22L259.83 22L259.17 20.37L255.62 20.37L254.95 22ZM257.39 15.93L256.31 18.61L258.47 18.61L257.39 15.93ZM265.86 21.24L265.86 21.24L266.64 19.49Q267.21 19.86 267.95 20.09Q268.69 20.32 269.41 20.32L269.41 20.32Q270.78 20.32 270.79 19.64L270.79 19.64Q270.79 19.28 270.40 19.11Q270.01 18.93 269.14 18.74L269.14 18.74Q268.19 18.53 267.55 18.30Q266.92 18.06 266.46 17.55Q266.01 17.03 266.01 16.16L266.01 16.16Q266.01 15.39 266.43 14.77Q266.85 14.15 267.68 13.79Q268.52 13.43 269.72 13.43L269.72 13.43Q270.55 13.43 271.36 13.62Q272.16 13.80 272.78 14.17L272.78 14.17L272.05 15.93Q270.84 15.28 269.71 15.28L269.71 15.28Q269.00 15.28 268.68 15.49Q268.36 15.70 268.36 16.04L268.36 16.04Q268.36 16.37 268.74 16.54Q269.13 16.71 269.98 16.89L269.98 16.89Q270.94 17.10 271.57 17.33Q272.20 17.56 272.66 18.07Q273.12 18.58 273.12 19.46L273.12 19.46Q273.12 20.21 272.70 20.83Q272.29 21.44 271.44 21.80Q270.60 22.17 269.40 22.17L269.40 22.17Q268.38 22.17 267.42 21.92Q266.46 21.67 265.86 21.24ZM277.11 21.24L277.11 21.24L277.89 19.49Q278.46 19.86 279.20 20.09Q279.94 20.32 280.66 20.32L280.66 20.32Q282.03 20.32 282.04 19.64L282.04 19.64Q282.04 19.28 281.65 19.11Q281.26 18.93 280.39 18.74L280.39 18.74Q279.44 18.53 278.80 18.30Q278.17 18.06 277.71 17.55Q277.26 17.03 277.26 16.16L277.26 16.16Q277.26 15.39 277.68 14.77Q278.10 14.15 278.93 13.79Q279.77 13.43 280.97 13.43L280.97 13.43Q281.80 13.43 282.61 13.62Q283.41 13.80 284.03 14.17L284.03 14.17L283.30 15.93Q282.09 15.28 280.96 15.28L280.96 15.28Q280.25 15.28 279.93 15.49Q279.61 15.70 279.61 16.04L279.61 16.04Q279.61 16.37 279.99 16.54Q280.38 16.71 281.23 16.89L281.23 16.89Q282.19 17.10 282.82 17.33Q283.45 17.56 283.91 18.07Q284.37 18.58 284.37 19.46L284.37 19.46Q284.37 20.21 283.95 20.83Q283.54 21.44 282.69 21.80Q281.85 22.17 280.65 22.17L280.65 22.17Q279.63 22.17 278.67 21.92Q277.71 21.67 277.11 21.24ZM291.33 22L288.95 22L288.95 13.60L292.79 13.60Q293.94 13.60 294.77 13.98Q295.61 14.35 296.07 15.06Q296.53 15.76 296.53 16.71L296.53 16.71Q296.53 17.62 296.10 18.30Q295.67 18.98 294.88 19.36L294.88 19.36L296.69 22L294.15 22L292.62 19.77L291.33 19.77L291.33 22ZM291.33 15.47L291.33 17.93L292.65 17.93Q293.38 17.93 293.75 17.61Q294.12 17.29 294.12 16.71L294.12 16.71Q294.12 16.12 293.75 15.79Q293.38 15.47 292.65 15.47L292.65 15.47L291.33 15.47ZM300.89 17.80L300.89 17.80Q300.89 16.55 301.49 15.55Q302.09 14.56 303.16 14.00Q304.22 13.43 305.55 13.43L305.55 13.43Q306.88 13.43 307.94 14.00Q309.01 14.56 309.61 15.55Q310.22 16.55 310.22 17.80L310.22 17.80Q310.22 19.05 309.61 20.04Q309.01 21.04 307.95 21.60Q306.89 22.17 305.55 22.17L305.55 22.17Q304.22 22.17 303.16 21.60Q302.09 21.04 301.49 20.04Q300.89 19.05 300.89 17.80ZM303.28 17.80L303.28 17.80Q303.28 18.51 303.58 19.05Q303.89 19.60 304.40 19.90Q304.92 20.20 305.55 20.20L305.55 20.20Q306.19 20.20 306.70 19.90Q307.22 19.60 307.52 19.05Q307.82 18.51 307.82 17.80L307.82 17.80Q307.82 17.09 307.52 16.54Q307.22 16 306.70 15.70Q306.19 15.40 305.55 15.40L305.55 15.40Q304.91 15.40 304.40 15.70Q303.89 16 303.58 16.54Q303.28 17.09 303.28 17.80ZM314.52 17.80L314.52 17.80Q314.52 16.55 315.12 15.55Q315.73 14.56 316.79 14.00Q317.85 13.43 319.18 13.43L319.18 13.43Q320.51 13.43 321.58 14.00Q322.64 14.56 323.25 15.55Q323.85 16.55 323.85 17.80L323.85 17.80Q323.85 19.05 323.25 20.04Q322.64 21.04 321.58 21.60Q320.52 22.17 319.18 22.17L319.18 22.17Q317.85 22.17 316.79 21.60Q315.73 21.04 315.12 20.04Q314.52 19.05 314.52 17.80ZM316.92 17.80L316.92 17.80Q316.92 18.51 317.22 19.05Q317.52 19.60 318.04 19.90Q318.55 20.20 319.18 20.20L319.18 20.20Q319.82 20.20 320.34 19.90Q320.85 19.60 321.15 19.05Q321.45 18.51 321.45 17.80L321.45 17.80Q321.45 17.09 321.15 16.54Q320.85 16 320.34 15.70Q319.82 15.40 319.18 15.40L319.18 15.40Q318.55 15.40 318.03 15.70Q317.52 16 317.22 16.54Q316.92 17.09 316.92 17.80ZM330.78 22L328.58 22L328.58 13.60L330.54 13.60L333.49 18.45L336.38 13.60L338.33 13.60L338.35 22L336.17 22L336.15 17.55L333.98 21.17L332.93 21.17L330.78 17.67L330.78 22ZM342.93 21.24L342.93 21.24L343.71 19.49Q344.27 19.86 345.01 20.09Q345.76 20.32 346.48 20.32L346.48 20.32Q347.84 20.32 347.85 19.64L347.85 19.64Q347.85 19.28 347.46 19.11Q347.07 18.93 346.20 18.74L346.20 18.74Q345.25 18.53 344.62 18.30Q343.98 18.06 343.53 17.55Q343.07 17.03 343.07 16.16L343.07 16.16Q343.07 15.39 343.49 14.77Q343.91 14.15 344.75 13.79Q345.58 13.43 346.79 13.43L346.79 13.43Q347.61 13.43 348.42 13.62Q349.22 13.80 349.84 14.17L349.84 14.17L349.11 15.93Q347.91 15.28 346.78 15.28L346.78 15.28Q346.07 15.28 345.74 15.49Q345.42 15.70 345.42 16.04L345.42 16.04Q345.42 16.37 345.81 16.54Q346.19 16.71 347.04 16.89L347.04 16.89Q348.00 17.10 348.63 17.33Q349.26 17.56 349.72 18.07Q350.19 18.58 350.19 19.46L350.19 19.46Q350.19 20.21 349.77 20.83Q349.35 21.44 348.51 21.80Q347.67 22.17 346.47 22.17L346.47 22.17Q345.45 22.17 344.48 21.92Q343.52 21.67 342.93 21.24Z" fill="#FFFFFF" x="88.08"/></svg>