<svg xmlns="http://www.w3.org/2000/svg" width="320.22999999999996" height="35" viewBox="0 0 320.22999999999996 35"><rect class="svg__rect" x="0" y="0" width="320.22999999999996" height="35" fill="#025488"/><rect class="svg__rect" x="320.22999999999996" y="0" width="0" height="35" fill="#389AD5"/><path class="svg__text" d="M15.70 22L14.22 22L14.22 13.47L15.70 13.47L15.70 17.02L19.51 17.02L19.51 13.47L20.99 13.47L20.99 22L19.51 22L19.51 18.21L15.70 18.21L15.70 22ZM27.41 14.66L24.78 14.66L24.78 13.47L31.54 13.47L31.54 14.66L28.88 14.66L28.88 22L27.41 22L27.41 14.66ZM36.98 14.66L34.34 14.66L34.34 13.47L41.11 13.47L41.11 14.66L38.45 14.66L38.45 22L36.98 22L36.98 14.66ZM46.35 22L44.87 22L44.87 13.47L48.13 13.47Q49.56 13.47 50.40 14.21Q51.24 14.96 51.24 16.18L51.24 16.18Q51.24 17.44 50.42 18.13Q49.60 18.83 48.11 18.83L48.11 18.83L46.35 18.83L46.35 22ZM46.35 14.66L46.35 17.64L48.13 17.64Q48.92 17.64 49.34 17.27Q49.75 16.90 49.75 16.19L49.75 16.19Q49.75 15.50 49.33 15.09Q48.91 14.68 48.17 14.66L48.17 14.66L46.35 14.66ZM55.09 19.42L55.09 19.42L56.57 19.42Q56.57 20.15 57.06 20.55Q57.54 20.95 58.43 20.95L58.43 20.95Q59.21 20.95 59.60 20.63Q59.98 20.32 59.98 19.80L59.98 19.80Q59.98 19.24 59.59 18.94Q59.19 18.63 58.16 18.32Q57.13 18.01 56.52 17.63L56.52 17.63Q55.36 16.90 55.36 15.72L55.36 15.72Q55.36 14.69 56.20 14.02Q57.04 13.35 58.38 13.35L58.38 13.35Q59.27 13.35 59.97 13.68Q60.66 14.01 61.06 14.61Q61.46 15.22 61.46 15.96L61.46 15.96L59.98 15.96Q59.98 15.29 59.57 14.91Q59.15 14.54 58.37 14.54L58.37 14.54Q57.64 14.54 57.24 14.85Q56.84 15.16 56.84 15.71L56.84 15.71Q56.84 16.18 57.27 16.50Q57.71 16.81 58.70 17.10Q59.70 17.40 60.30 17.78Q60.90 18.16 61.19 18.65Q61.47 19.13 61.47 19.79L61.47 19.79Q61.47 20.86 60.65 21.49Q59.83 22.12 58.43 22.12L58.43 22.12Q57.51 22.12 56.73 21.77Q55.95 21.43 55.52 20.83Q55.09 20.22 55.09 19.42ZM65.87 21.85Q65.65 21.63 65.65 21.29Q65.65 20.95 65.87 20.73Q66.08 20.50 66.48 20.50L66.48 20.50Q66.88 20.50 67.09 20.73Q67.31 20.95 67.31 21.29L67.31 21.29Q67.31 21.63 67.09 21.84Q66.88 22.06 66.48 22.06L66.48 22.06Q66.10 22.06 65.87 21.85ZM65.87 16.87Q65.65 16.66 65.65 16.32Q65.65 15.98 65.87 15.75Q66.08 15.53 66.48 15.53L66.48 15.53Q66.88 15.53 67.09 15.75Q67.31 15.98 67.31 16.32L67.31 16.32Q67.31 16.65 67.09 16.87Q66.88 17.09 66.48 17.09L66.48 17.09Q66.10 17.09 65.87 16.87ZM72.19 22.73L71.07 22.73L74.43 13.47L75.55 13.47L72.19 22.73ZM79.92 22.73L78.81 22.73L82.16 13.47L83.28 13.47L79.92 22.73ZM88.88 22L87.39 22L87.39 13.47L88.88 13.47L88.88 17.02L92.69 17.02L92.69 13.47L94.17 13.47L94.17 22L92.69 22L92.69 18.21L88.88 18.21L88.88 22ZM100.39 22L98.91 22L98.91 13.47L101.91 13.47Q103.39 13.47 104.19 14.13Q104.99 14.79 104.99 16.05L104.99 16.05Q104.99 16.90 104.58 17.48Q104.16 18.06 103.43 18.37L103.43 18.37L105.34 21.92L105.34 22L103.75 22L102.04 18.71L100.39 18.71L100.39 22ZM100.39 14.66L100.39 17.52L101.91 17.52Q102.66 17.52 103.09 17.15Q103.51 16.77 103.51 16.11L103.51 16.11Q103.51 15.43 103.12 15.05Q102.73 14.68 101.96 14.66L101.96 14.66L100.39 14.66ZM110.87 22L109.39 22L109.39 13.47L110.87 13.47L114.68 19.54L114.68 13.47L116.15 13.47L116.15 22L114.67 22L110.87 15.95L110.87 22ZM126.47 22L120.89 22L120.89 13.47L126.43 13.47L126.43 14.66L122.38 14.66L122.38 17.02L125.88 17.02L125.88 18.19L122.38 18.19L122.38 20.82L126.47 20.82L126.47 22ZM132.35 14.66L129.71 14.66L129.71 13.47L136.48 13.47L136.48 14.66L133.82 14.66L133.82 22L132.35 22L132.35 14.66ZM142.86 18.95L139.78 18.95L139.78 17.80L142.86 17.80L142.86 18.95ZM148.64 22L147.16 22L147.16 13.47L150.16 13.47Q151.64 13.47 152.44 14.13Q153.24 14.79 153.24 16.05L153.24 16.05Q153.24 16.90 152.83 17.48Q152.42 18.06 151.68 18.37L151.68 18.37L153.59 21.92L153.59 22L152.01 22L150.30 18.71L148.64 18.71L148.64 22ZM148.64 14.66L148.64 17.52L150.17 17.52Q150.92 17.52 151.34 17.15Q151.76 16.77 151.76 16.11L151.76 16.11Q151.76 15.43 151.37 15.05Q150.98 14.68 150.21 14.66L150.21 14.66L148.64 14.66ZM163.22 22L157.64 22L157.64 13.47L163.17 13.47L163.17 14.66L159.12 14.66L159.12 17.02L162.62 17.02L162.62 18.19L159.12 18.19L159.12 20.82L163.22 20.82L163.22 22ZM168.19 22L166.65 22L169.87 13.47L171.20 13.47L174.43 22L172.88 22L172.19 20.01L168.88 20.01L168.19 22ZM170.53 15.28L169.30 18.82L171.77 18.82L170.53 15.28ZM178.12 18.19L178.12 18.19L178.12 17.39Q178.12 16.19 178.54 15.27Q178.97 14.35 179.77 13.85Q180.57 13.35 181.62 13.35L181.62 13.35Q183.03 13.35 183.89 14.12Q184.75 14.89 184.89 16.29L184.89 16.29L183.42 16.29Q183.31 15.37 182.88 14.96Q182.45 14.55 181.62 14.55L181.62 14.55Q180.65 14.55 180.13 15.26Q179.62 15.96 179.60 17.33L179.60 17.33L179.60 18.09Q179.60 19.47 180.10 20.20Q180.59 20.92 181.55 20.92L181.55 20.92Q182.42 20.92 182.86 20.53Q183.30 20.14 183.42 19.22L183.42 19.22L184.89 19.22Q184.77 20.59 183.89 21.35Q183.01 22.12 181.55 22.12L181.55 22.12Q180.53 22.12 179.75 21.63Q178.98 21.15 178.56 20.26Q178.13 19.37 178.12 18.19ZM190.89 14.66L188.25 14.66L188.25 13.47L195.02 13.47L195.02 14.66L192.36 14.66L192.36 22L190.89 22L190.89 14.66ZM198.92 21.85Q198.70 21.63 198.70 21.29Q198.70 20.95 198.92 20.73Q199.13 20.50 199.53 20.50L199.53 20.50Q199.92 20.50 200.14 20.73Q200.36 20.95 200.36 21.29L200.36 21.29Q200.36 21.63 200.14 21.84Q199.92 22.06 199.53 22.06L199.53 22.06Q199.14 22.06 198.92 21.85ZM207.41 22L204.35 13.47L205.98 13.47L208.12 20.14L210.29 13.47L211.92 13.47L208.85 22L207.41 22ZM221.45 22L215.87 22L215.87 13.47L221.40 13.47L221.40 14.66L217.35 14.66L217.35 17.02L220.85 17.02L220.85 18.19L217.35 18.19L217.35 20.82L221.45 20.82L221.45 22ZM227.12 22L225.64 22L225.64 13.47L228.64 13.47Q230.12 13.47 230.92 14.13Q231.72 14.79 231.72 16.05L231.72 16.05Q231.72 16.90 231.31 17.48Q230.90 18.06 230.16 18.37L230.16 18.37L232.07 21.92L232.07 22L230.49 22L228.78 18.71L227.12 18.71L227.12 22ZM227.12 14.66L227.12 17.52L228.65 17.52Q229.40 17.52 229.82 17.15Q230.24 16.77 230.24 16.11L230.24 16.11Q230.24 15.43 229.85 15.05Q229.46 14.68 228.69 14.66L228.69 14.66L227.12 14.66ZM235.85 18.19L235.85 18.19L235.85 17.39Q235.85 16.19 236.28 15.27Q236.70 14.35 237.50 13.85Q238.30 13.35 239.35 13.35L239.35 13.35Q240.76 13.35 241.63 14.12Q242.49 14.89 242.63 16.29L242.63 16.29L241.15 16.29Q241.05 15.37 240.61 14.96Q240.18 14.55 239.35 14.55L239.35 14.55Q238.39 14.55 237.87 15.26Q237.35 15.96 237.34 17.33L237.34 17.33L237.34 18.09Q237.34 19.47 237.83 20.20Q238.33 20.92 239.28 20.92L239.28 20.92Q240.15 20.92 240.59 20.53Q241.03 20.14 241.15 19.22L241.15 19.22L242.63 19.22Q242.50 20.59 241.62 21.35Q240.74 22.12 239.28 22.12L239.28 22.12Q238.26 22.12 237.49 21.63Q236.71 21.15 236.29 20.26Q235.87 19.37 235.85 18.19ZM252.52 22L246.94 22L246.94 13.47L252.48 13.47L252.48 14.66L248.42 14.66L248.42 17.02L251.93 17.02L251.93 18.19L248.42 18.19L248.42 20.82L252.52 20.82L252.52 22ZM262.07 22L256.71 22L256.71 13.47L258.20 13.47L258.20 20.82L262.07 20.82L262.07 22ZM266.34 21.85Q266.12 21.63 266.12 21.29Q266.12 20.95 266.33 20.73Q266.55 20.50 266.94 20.50L266.94 20.50Q267.34 20.50 267.56 20.73Q267.78 20.95 267.78 21.29L267.78 21.29Q267.78 21.63 267.56 21.84Q267.34 22.06 266.94 22.06L266.94 22.06Q266.56 22.06 266.34 21.85ZM273.31 22L271.77 22L274.99 13.47L276.32 13.47L279.55 22L278.01 22L277.31 20.01L274.00 20.01L273.31 22ZM275.66 15.28L274.42 18.82L276.89 18.82L275.66 15.28ZM284.99 22L283.51 22L283.51 13.47L286.77 13.47Q288.20 13.47 289.04 14.21Q289.88 14.96 289.88 16.18L289.88 16.18Q289.88 17.44 289.06 18.13Q288.24 18.83 286.75 18.83L286.75 18.83L284.99 18.83L284.99 22ZM284.99 14.66L284.99 17.64L286.77 17.64Q287.56 17.64 287.98 17.27Q288.39 16.90 288.39 16.19L288.39 16.19Q288.39 15.50 287.97 15.09Q287.55 14.68 286.81 14.66L286.81 14.66L284.99 14.66ZM295.65 22L294.17 22L294.17 13.47L297.43 13.47Q298.86 13.47 299.70 14.21Q300.54 14.96 300.54 16.18L300.54 16.18Q300.54 17.44 299.72 18.13Q298.89 18.83 297.41 18.83L297.41 18.83L295.65 18.83L295.65 22ZM295.65 14.66L295.65 17.64L297.43 17.64Q298.22 17.64 298.64 17.27Q299.05 16.90 299.05 16.19L299.05 16.19Q299.05 15.50 298.63 15.09Q298.21 14.68 297.47 14.66L297.47 14.66L295.65 14.66ZM305.09 22.73L303.97 22.73L307.33 13.47L308.45 13.47L305.09 22.73Z" fill="#FFFFFF"/><path class="svg__text" d="" fill="#FFFFFF" x="333.22999999999996"/></svg>