<svg xmlns="http://www.w3.org/2000/svg" width="84.97" height="35" viewBox="0 0 84.97 35"><rect class="svg__rect" x="0" y="0" width="84.97" height="35" fill="#2F6209"/><rect class="svg__rect" x="84.97" y="0" width="0" height="35" fill="#8FC965"/><path class="svg__text" d="M15.70 22L14.22 22L14.22 13.47L15.70 13.47L19.51 19.54L19.51 13.47L20.98 13.47L20.98 22L19.50 22L15.70 15.95L15.70 22ZM25.46 18.00L25.46 18.00L25.46 17.52Q25.46 16.28 25.90 15.32Q26.34 14.37 27.15 13.86Q27.95 13.35 28.99 13.35Q30.04 13.35 30.84 13.85Q31.65 14.35 32.09 15.29Q32.53 16.23 32.53 17.48L32.53 17.48L32.53 17.96Q32.53 19.21 32.10 20.16Q31.67 21.10 30.86 21.61Q30.06 22.12 29.01 22.12L29.01 22.12Q27.97 22.12 27.16 21.61Q26.35 21.10 25.90 20.17Q25.46 19.23 25.46 18.00ZM26.94 17.46L26.94 17.96Q26.94 19.36 27.49 20.13Q28.03 20.90 29.01 20.90L29.01 20.90Q29.99 20.90 30.52 20.15Q31.05 19.40 31.05 17.96L31.05 17.96L31.05 17.51Q31.05 16.09 30.52 15.34Q29.98 14.58 28.99 14.58L28.99 14.58Q28.03 14.58 27.49 15.33Q26.95 16.09 26.94 17.46L26.94 17.46ZM39.45 22L37.00 22L37.00 13.47L39.52 13.47Q40.65 13.47 41.52 13.97Q42.40 14.48 42.88 15.40Q43.36 16.33 43.36 17.52L43.36 17.52L43.36 17.95Q43.36 19.16 42.88 20.08Q42.39 21.00 41.50 21.50Q40.61 22 39.45 22L39.45 22ZM38.48 14.66L38.48 20.82L39.45 20.82Q40.61 20.82 41.24 20.09Q41.86 19.36 41.87 17.99L41.87 17.99L41.87 17.52Q41.87 16.13 41.27 15.40Q40.67 14.66 39.52 14.66L39.52 14.66L38.48 14.66ZM53.40 22L47.83 22L47.83 13.47L53.36 13.47L53.36 14.66L49.31 14.66L49.31 17.02L52.81 17.02L52.81 18.19L49.31 18.19L49.31 20.82L53.40 20.82L53.40 22ZM57.00 19.57L57.00 19.57L58.47 19.57Q58.47 20.25 58.81 20.59Q59.15 20.93 59.79 20.93L59.79 20.93Q60.38 20.93 60.74 20.54Q61.09 20.14 61.09 19.45L61.09 19.45L61.09 13.47L62.57 13.47L62.57 19.45Q62.57 20.68 61.80 21.40Q61.04 22.12 59.79 22.12L59.79 22.12Q58.45 22.12 57.72 21.44Q57.00 20.77 57.00 19.57ZM66.82 19.42L66.82 19.42L68.30 19.42Q68.30 20.15 68.78 20.55Q69.26 20.95 70.16 20.95L70.16 20.95Q70.93 20.95 71.32 20.63Q71.71 20.32 71.71 19.80L71.71 19.80Q71.71 19.24 71.31 18.94Q70.92 18.63 69.89 18.32Q68.86 18.01 68.25 17.63L68.25 17.63Q67.08 16.90 67.08 15.72L67.08 15.72Q67.08 14.69 67.92 14.02Q68.76 13.35 70.10 13.35L70.10 13.35Q70.99 13.35 71.69 13.68Q72.39 14.01 72.79 14.61Q73.19 15.22 73.19 15.96L73.19 15.96L71.71 15.96Q71.71 15.29 71.29 14.91Q70.87 14.54 70.09 14.54L70.09 14.54Q69.37 14.54 68.96 14.85Q68.56 15.16 68.56 15.71L68.56 15.71Q68.56 16.18 69.00 16.50Q69.43 16.81 70.43 17.10Q71.42 17.40 72.03 17.78Q72.63 18.16 72.91 18.65Q73.19 19.13 73.19 19.79L73.19 19.79Q73.19 20.86 72.37 21.49Q71.56 22.12 70.16 22.12L70.16 22.12Q69.23 22.12 68.45 21.77Q67.68 21.43 67.25 20.83Q66.82 20.22 66.82 19.42Z" fill="#FFFFFF"/><path class="svg__text" d="" fill="#FFFFFF" x="97.97"/></svg>