<svg xmlns="http://www.w3.org/2000/svg" width="56.92" height="35" viewBox="0 0 56.92 35"><rect class="svg__rect" x="0" y="0" width="56.92" height="35" fill="#2F6209"/><rect class="svg__rect" x="56.92" y="0" width="0" height="35" fill="#8FC965"/><path class="svg__text" d="M15.70 22L14.22 22L14.22 13.47L15.70 13.47L19.51 19.54L19.51 13.47L20.98 13.47L20.98 22L19.50 22L15.70 15.95L15.70 22ZM27.21 22L25.73 22L25.73 13.47L28.99 13.47Q30.42 13.47 31.26 14.21Q32.10 14.96 32.10 16.18L32.10 16.18Q32.10 17.44 31.28 18.13Q30.45 18.83 28.97 18.83L28.97 18.83L27.21 18.83L27.21 22ZM27.21 14.66L27.21 17.64L28.99 17.64Q29.78 17.64 30.20 17.27Q30.61 16.90 30.61 16.19L30.61 16.19Q30.61 15.50 30.19 15.09Q29.77 14.68 29.03 14.66L29.03 14.66L27.21 14.66ZM37.86 22L36.38 22L36.38 13.47L38.31 13.47L40.77 20.01L43.22 13.47L45.14 13.47L45.14 22L43.66 22L43.66 19.19L43.81 15.43L41.29 22L40.23 22L37.71 15.43L37.86 19.19L37.86 22Z" fill="#FFFFFF"/><path class="svg__text" d="" fill="#FFFFFF" x="69.92"/></svg>