<svg xmlns="http://www.w3.org/2000/svg" width="180.3" height="35" viewBox="0 0 180.3 35"><rect class="svg__rect" x="0" y="0" width="180.3" height="35" fill="#D35B09"/><rect class="svg__rect" x="180.3" y="0" width="0" height="35" fill="#389AD5"/><path class="svg__text" d="M15.70 22L14.22 22L14.22 13.47L17.22 13.47Q18.69 13.47 19.50 14.13Q20.30 14.79 20.30 16.05L20.30 16.05Q20.30 16.90 19.89 17.48Q19.47 18.06 18.73 18.37L18.73 18.37L20.65 21.92L20.65 22L19.06 22L17.35 18.71L15.70 18.71L15.70 22ZM15.70 14.66L15.70 17.52L17.22 17.52Q17.97 17.52 18.39 17.15Q18.82 16.77 18.82 16.11L18.82 16.11Q18.82 15.43 18.43 15.05Q18.04 14.68 17.26 14.66L17.26 14.66L15.70 14.66ZM30.27 22L24.69 22L24.69 13.47L30.23 13.47L30.23 14.66L26.18 14.66L26.18 17.02L29.68 17.02L29.68 18.19L26.18 18.19L26.18 20.82L30.27 20.82L30.27 22ZM35.25 22L33.71 22L36.93 13.47L38.26 13.47L41.49 22L39.94 22L39.24 20.01L35.94 20.01L35.25 22ZM37.59 15.28L36.35 18.82L38.83 18.82L37.59 15.28ZM45.17 18.19L45.17 18.19L45.17 17.39Q45.17 16.19 45.60 15.27Q46.03 14.35 46.83 13.85Q47.63 13.35 48.68 13.35L48.68 13.35Q50.09 13.35 50.95 14.12Q51.81 14.89 51.95 16.29L51.95 16.29L50.48 16.29Q50.37 15.37 49.94 14.96Q49.51 14.55 48.68 14.55L48.68 14.55Q47.71 14.55 47.19 15.26Q46.67 15.96 46.66 17.33L46.66 17.33L46.66 18.09Q46.66 19.47 47.16 20.20Q47.65 20.92 48.61 20.92L48.61 20.92Q49.48 20.92 49.92 20.53Q50.36 20.14 50.48 19.22L50.48 19.22L51.95 19.22Q51.82 20.59 50.94 21.35Q50.06 22.12 48.61 22.12L48.61 22.12Q47.59 22.12 46.81 21.63Q46.03 21.15 45.61 20.26Q45.19 19.37 45.17 18.19ZM57.95 14.66L55.31 14.66L55.31 13.47L62.08 13.47L62.08 14.66L59.42 14.66L59.42 22L57.95 22L57.95 14.66ZM68.46 18.95L65.38 18.95L65.38 17.80L68.46 17.80L68.46 18.95ZM75.21 22L72.76 22L72.76 13.47L75.28 13.47Q76.41 13.47 77.28 13.97Q78.16 14.48 78.64 15.40Q79.12 16.33 79.12 17.52L79.12 17.52L79.12 17.95Q79.12 19.16 78.64 20.08Q78.15 21.00 77.26 21.50Q76.37 22 75.21 22L75.21 22ZM74.24 14.66L74.24 20.82L75.21 20.82Q76.37 20.82 77.00 20.09Q77.62 19.36 77.63 17.99L77.63 17.99L77.63 17.52Q77.63 16.13 77.03 15.40Q76.43 14.66 75.28 14.66L75.28 14.66L74.24 14.66ZM84.37 22L82.82 22L86.05 13.47L87.38 13.47L90.61 22L89.06 22L88.36 20.01L85.06 20.01L84.37 22ZM86.71 15.28L85.47 18.82L87.95 18.82L86.71 15.28ZM96.24 14.66L93.61 14.66L93.61 13.47L100.37 13.47L100.37 14.66L97.71 14.66L97.71 22L96.24 22L96.24 14.66ZM109.71 22L104.13 22L104.13 13.47L109.67 13.47L109.67 14.66L105.61 14.66L105.61 17.02L109.12 17.02L109.12 18.19L105.61 18.19L105.61 20.82L109.71 20.82L109.71 22ZM115.39 22L113.90 22L113.90 13.47L117.17 13.47Q118.60 13.47 119.44 14.21Q120.28 14.96 120.28 16.18L120.28 16.18Q120.28 17.44 119.45 18.13Q118.63 18.83 117.15 18.83L117.15 18.83L115.39 18.83L115.39 22ZM115.39 14.66L115.39 17.64L117.17 17.64Q117.96 17.64 118.37 17.27Q118.79 16.90 118.79 16.19L118.79 16.19Q118.79 15.50 118.37 15.09Q117.95 14.68 117.21 14.66L117.21 14.66L115.39 14.66ZM126.13 22L124.65 22L124.65 13.47L126.13 13.47L126.13 22ZM130.67 18.19L130.67 18.19L130.67 17.39Q130.67 16.19 131.09 15.27Q131.52 14.35 132.32 13.85Q133.12 13.35 134.17 13.35L134.17 13.35Q135.58 13.35 136.44 14.12Q137.31 14.89 137.45 16.29L137.45 16.29L135.97 16.29Q135.86 15.37 135.43 14.96Q135.00 14.55 134.17 14.55L134.17 14.55Q133.20 14.55 132.68 15.26Q132.17 15.96 132.15 17.33L132.15 17.33L132.15 18.09Q132.15 19.47 132.65 20.20Q133.14 20.92 134.10 20.92L134.10 20.92Q134.97 20.92 135.41 20.53Q135.85 20.14 135.97 19.22L135.97 19.22L137.45 19.22Q137.32 20.59 136.44 21.35Q135.56 22.12 134.10 22.12L134.10 22.12Q133.08 22.12 132.30 21.63Q131.53 21.15 131.11 20.26Q130.68 19.37 130.67 18.19ZM143.24 22L141.76 22L141.76 13.47L143.24 13.47L143.24 17.47L144.06 16.46L146.56 13.47L148.35 13.47L145.18 17.25L148.53 22L146.77 22L144.21 18.31L143.24 19.34L143.24 22ZM157.89 22L152.31 22L152.31 13.47L157.85 13.47L157.85 14.66L153.79 14.66L153.79 17.02L157.30 17.02L157.30 18.19L153.79 18.19L153.79 20.82L157.89 20.82L157.89 22ZM163.57 22L162.08 22L162.08 13.47L165.08 13.47Q166.56 13.47 167.36 14.13Q168.17 14.79 168.17 16.05L168.17 16.05Q168.17 16.90 167.75 17.48Q167.34 18.06 166.60 18.37L166.60 18.37L168.52 21.92L168.52 22L166.93 22L165.22 18.71L163.57 18.71L163.57 22ZM163.57 14.66L163.57 17.52L165.09 17.52Q165.84 17.52 166.26 17.15Q166.68 16.77 166.68 16.11L166.68 16.11Q166.68 15.43 166.29 15.05Q165.90 14.68 165.13 14.66L165.13 14.66L163.57 14.66Z" fill="#FFFFFF"/><path class="svg__text" d="" fill="#FFFFFF" x="193.3"/></svg>