<svg xmlns="http://www.w3.org/2000/svg" width="140.43" height="35" viewBox="0 0 140.43 35"><rect class="svg__rect" x="0" y="0" width="140.43" height="35" fill="#D35B09"/><rect class="svg__rect" x="140.43" y="0" width="0" height="35" fill="#389AD5"/><path class="svg__text" d="M15.70 22L14.22 22L14.22 13.47L17.22 13.47Q18.69 13.47 19.50 14.13Q20.30 14.79 20.30 16.05L20.30 16.05Q20.30 16.90 19.89 17.48Q19.47 18.06 18.73 18.37L18.73 18.37L20.65 21.92L20.65 22L19.06 22L17.35 18.71L15.70 18.71L15.70 22ZM15.70 14.66L15.70 17.52L17.22 17.52Q17.97 17.52 18.39 17.15Q18.82 16.77 18.82 16.11L18.82 16.11Q18.82 15.43 18.43 15.05Q18.04 14.68 17.26 14.66L17.26 14.66L15.70 14.66ZM30.27 22L24.69 22L24.69 13.47L30.23 13.47L30.23 14.66L26.18 14.66L26.18 17.02L29.68 17.02L29.68 18.19L26.18 18.19L26.18 20.82L30.27 20.82L30.27 22ZM35.25 22L33.71 22L36.93 13.47L38.26 13.47L41.49 22L39.94 22L39.24 20.01L35.94 20.01L35.25 22ZM37.59 15.28L36.35 18.82L38.83 18.82L37.59 15.28ZM45.17 18.19L45.17 18.19L45.17 17.39Q45.17 16.19 45.60 15.27Q46.03 14.35 46.83 13.85Q47.63 13.35 48.68 13.35L48.68 13.35Q50.09 13.35 50.95 14.12Q51.81 14.89 51.95 16.29L51.95 16.29L50.48 16.29Q50.37 15.37 49.94 14.96Q49.51 14.55 48.68 14.55L48.68 14.55Q47.71 14.55 47.19 15.26Q46.67 15.96 46.66 17.33L46.66 17.33L46.66 18.09Q46.66 19.47 47.16 20.20Q47.65 20.92 48.61 20.92L48.61 20.92Q49.48 20.92 49.92 20.53Q50.36 20.14 50.48 19.22L50.48 19.22L51.95 19.22Q51.82 20.59 50.94 21.35Q50.06 22.12 48.61 22.12L48.61 22.12Q47.59 22.12 46.81 21.63Q46.03 21.15 45.61 20.26Q45.19 19.37 45.17 18.19ZM57.95 14.66L55.31 14.66L55.31 13.47L62.08 13.47L62.08 14.66L59.42 14.66L59.42 22L57.95 22L57.95 14.66ZM68.46 18.95L65.38 18.95L65.38 17.80L68.46 17.80L68.46 18.95ZM72.32 19.42L72.32 19.42L73.81 19.42Q73.81 20.15 74.29 20.55Q74.77 20.95 75.66 20.95L75.66 20.95Q76.44 20.95 76.83 20.63Q77.22 20.32 77.22 19.80L77.22 19.80Q77.22 19.24 76.82 18.94Q76.43 18.63 75.39 18.32Q74.36 18.01 73.75 17.63L73.75 17.63Q72.59 16.90 72.59 15.72L72.59 15.72Q72.59 14.69 73.43 14.02Q74.27 13.35 75.61 13.35L75.61 13.35Q76.50 13.35 77.20 13.68Q77.90 14.01 78.30 14.61Q78.69 15.22 78.69 15.96L78.69 15.96L77.22 15.96Q77.22 15.29 76.80 14.91Q76.38 14.54 75.60 14.54L75.60 14.54Q74.87 14.54 74.47 14.85Q74.07 15.16 74.07 15.71L74.07 15.71Q74.07 16.18 74.50 16.50Q74.94 16.81 75.93 17.10Q76.93 17.40 77.53 17.78Q78.14 18.16 78.42 18.65Q78.70 19.13 78.70 19.79L78.70 19.79Q78.70 20.86 77.88 21.49Q77.06 22.12 75.66 22.12L75.66 22.12Q74.74 22.12 73.96 21.77Q73.19 21.43 72.76 20.83Q72.32 20.22 72.32 19.42ZM88.57 22L82.99 22L82.99 13.47L88.53 13.47L88.53 14.66L84.47 14.66L84.47 17.02L87.97 17.02L87.97 18.19L84.47 18.19L84.47 20.82L88.57 20.82L88.57 22ZM98.12 22L92.76 22L92.76 13.47L94.24 13.47L94.24 20.82L98.12 20.82L98.12 22ZM107.82 22L102.24 22L102.24 13.47L107.78 13.47L107.78 14.66L103.72 14.66L103.72 17.02L107.23 17.02L107.23 18.19L103.72 18.19L103.72 20.82L107.82 20.82L107.82 22ZM111.75 18.19L111.75 18.19L111.75 17.39Q111.75 16.19 112.17 15.27Q112.60 14.35 113.40 13.85Q114.20 13.35 115.25 13.35L115.25 13.35Q116.66 13.35 117.52 14.12Q118.39 14.89 118.53 16.29L118.53 16.29L117.05 16.29Q116.94 15.37 116.51 14.96Q116.08 14.55 115.25 14.55L115.25 14.55Q114.28 14.55 113.77 15.26Q113.25 15.96 113.23 17.33L113.23 17.33L113.23 18.09Q113.23 19.47 113.73 20.20Q114.22 20.92 115.18 20.92L115.18 20.92Q116.05 20.92 116.49 20.53Q116.93 20.14 117.05 19.22L117.05 19.22L118.53 19.22Q118.40 20.59 117.52 21.35Q116.64 22.12 115.18 22.12L115.18 22.12Q114.16 22.12 113.38 21.63Q112.61 21.15 112.19 20.26Q111.76 19.37 111.75 18.19ZM124.52 14.66L121.88 14.66L121.88 13.47L128.65 13.47L128.65 14.66L125.99 14.66L125.99 22L124.52 22L124.52 14.66Z" fill="#FFFFFF"/><path class="svg__text" d="" fill="#FFFFFF" x="153.43"/></svg>