<svg xmlns="http://www.w3.org/2000/svg" width="258.22" height="35" viewBox="0 0 258.22 35"><rect class="svg__rect" x="0" y="0" width="258.22" height="35" fill="#EA4560"/><rect class="svg__rect" x="258.22" y="0" width="0" height="35" fill="#389AD5"/><path class="svg__text" d="M15.70 22L14.22 22L14.22 13.47L17.22 13.47Q18.69 13.47 19.50 14.13Q20.30 14.79 20.30 16.05L20.30 16.05Q20.30 16.90 19.89 17.48Q19.47 18.06 18.73 18.37L18.73 18.37L20.65 21.92L20.65 22L19.06 22L17.35 18.71L15.70 18.71L15.70 22ZM15.70 14.66L15.70 17.52L17.22 17.52Q17.97 17.52 18.39 17.15Q18.82 16.77 18.82 16.11L18.82 16.11Q18.82 15.43 18.43 15.05Q18.04 14.68 17.26 14.66L17.26 14.66L15.70 14.66ZM30.27 22L24.69 22L24.69 13.47L30.23 13.47L30.23 14.66L26.18 14.66L26.18 17.02L29.68 17.02L29.68 18.19L26.18 18.19L26.18 20.82L30.27 20.82L30.27 22ZM35.25 22L33.71 22L36.93 13.47L38.26 13.47L41.49 22L39.94 22L39.24 20.01L35.94 20.01L35.25 22ZM37.59 15.28L36.35 18.82L38.83 18.82L37.59 15.28ZM45.17 18.19L45.17 18.19L45.17 17.39Q45.17 16.19 45.60 15.27Q46.03 14.35 46.83 13.85Q47.63 13.35 48.68 13.35L48.68 13.35Q50.09 13.35 50.95 14.12Q51.81 14.89 51.95 16.29L51.95 16.29L50.48 16.29Q50.37 15.37 49.94 14.96Q49.51 14.55 48.68 14.55L48.68 14.55Q47.71 14.55 47.19 15.26Q46.67 15.96 46.66 17.33L46.66 17.33L46.66 18.09Q46.66 19.47 47.16 20.20Q47.65 20.92 48.61 20.92L48.61 20.92Q49.48 20.92 49.92 20.53Q50.36 20.14 50.48 19.22L50.48 19.22L51.95 19.22Q51.82 20.59 50.94 21.35Q50.06 22.12 48.61 22.12L48.61 22.12Q47.59 22.12 46.81 21.63Q46.03 21.15 45.61 20.26Q45.19 19.37 45.17 18.19ZM57.95 14.66L55.31 14.66L55.31 13.47L62.08 13.47L62.08 14.66L59.42 14.66L59.42 22L57.95 22L57.95 14.66ZM68.46 18.95L65.38 18.95L65.38 17.80L68.46 17.80L68.46 18.95ZM74.23 22L72.76 22L72.76 13.47L74.68 13.47L77.14 20.01L79.60 13.47L81.51 13.47L81.51 22L80.04 22L80.04 19.19L80.18 15.43L77.66 22L76.60 22L74.09 15.43L74.23 19.19L74.23 22ZM85.98 18.00L85.98 18.00L85.98 17.52Q85.98 16.28 86.43 15.32Q86.87 14.37 87.67 13.86Q88.48 13.35 89.52 13.35Q90.56 13.35 91.37 13.85Q92.18 14.35 92.62 15.29Q93.06 16.23 93.06 17.48L93.06 17.48L93.06 17.96Q93.06 19.21 92.63 20.16Q92.19 21.10 91.39 21.61Q90.58 22.12 89.53 22.12L89.53 22.12Q88.50 22.12 87.68 21.61Q86.87 21.10 86.43 20.17Q85.99 19.23 85.98 18.00ZM87.47 17.46L87.47 17.96Q87.47 19.36 88.01 20.13Q88.56 20.90 89.53 20.90L89.53 20.90Q90.52 20.90 91.05 20.15Q91.58 19.40 91.58 17.96L91.58 17.96L91.58 17.51Q91.58 16.09 91.04 15.34Q90.51 14.58 89.52 14.58L89.52 14.58Q88.56 14.58 88.02 15.33Q87.48 16.09 87.47 17.46L87.47 17.46ZM99.98 22L97.53 22L97.53 13.47L100.05 13.47Q101.18 13.47 102.05 13.97Q102.93 14.48 103.41 15.40Q103.89 16.33 103.89 17.52L103.89 17.52L103.89 17.95Q103.89 19.16 103.41 20.08Q102.92 21.00 102.03 21.50Q101.14 22 99.98 22L99.98 22ZM99.01 14.66L99.01 20.82L99.97 20.82Q101.14 20.82 101.77 20.09Q102.39 19.36 102.40 17.99L102.40 17.99L102.40 17.52Q102.40 16.13 101.80 15.40Q101.19 14.66 100.05 14.66L100.05 14.66L99.01 14.66ZM109.13 22L107.59 22L110.81 13.47L112.14 13.47L115.37 22L113.83 22L113.13 20.01L109.82 20.01L109.13 22ZM111.48 15.28L110.24 18.82L112.71 18.82L111.48 15.28ZM124.68 22L119.33 22L119.33 13.47L120.81 13.47L120.81 20.82L124.68 20.82L124.68 22ZM131.43 18.95L128.36 18.95L128.36 17.80L131.43 17.80L131.43 18.95ZM137.22 22L135.73 22L135.73 13.47L137.22 13.47L137.22 17.02L141.03 17.02L141.03 13.47L142.51 13.47L142.51 22L141.03 22L141.03 18.21L137.22 18.21L137.22 22ZM148.73 22L147.25 22L147.25 13.47L150.25 13.47Q151.72 13.47 152.53 14.13Q153.33 14.79 153.33 16.05L153.33 16.05Q153.33 16.90 152.92 17.48Q152.50 18.06 151.77 18.37L151.77 18.37L153.68 21.92L153.68 22L152.09 22L150.38 18.71L148.73 18.71L148.73 22ZM148.73 14.66L148.73 17.52L150.25 17.52Q151.00 17.52 151.43 17.15Q151.85 16.77 151.85 16.11L151.85 16.11Q151.85 15.43 151.46 15.05Q151.07 14.68 150.30 14.66L150.30 14.66L148.73 14.66ZM159.21 22L157.72 22L157.72 13.47L159.21 13.47L163.02 19.54L163.02 13.47L164.49 13.47L164.49 22L163.01 22L159.21 15.95L159.21 22ZM174.81 22L169.23 22L169.23 13.47L174.77 13.47L174.77 14.66L170.72 14.66L170.72 17.02L174.22 17.02L174.22 18.19L170.72 18.19L170.72 20.82L174.81 20.82L174.81 22ZM180.69 14.66L178.05 14.66L178.05 13.47L184.82 13.47L184.82 14.66L182.16 14.66L182.16 22L180.69 22L180.69 14.66ZM194.43 18.53L194.43 18.53Q194.43 17.18 194.80 15.96Q195.16 14.75 195.86 13.79Q196.57 12.83 197.35 12.44L197.35 12.44L197.63 13.28Q196.81 13.90 196.29 15.19Q195.78 16.47 195.73 18.13L195.73 18.13L195.73 18.64Q195.73 20.41 196.23 21.80Q196.73 23.20 197.63 23.92L197.63 23.92L197.35 24.71Q196.57 24.33 195.86 23.36Q195.15 22.40 194.79 21.19Q194.43 19.98 194.43 18.53ZM203.93 15.15L201.84 15.87L201.84 14.66L205.17 13.44L205.35 13.44L205.35 22L203.93 22L203.93 15.15ZM211.68 21.85Q211.46 21.63 211.46 21.29Q211.46 20.95 211.67 20.73Q211.89 20.50 212.28 20.50L212.28 20.50Q212.68 20.50 212.90 20.73Q213.11 20.95 213.11 21.29L213.11 21.29Q213.11 21.63 212.90 21.84Q212.68 22.06 212.28 22.06L212.28 22.06Q211.90 22.06 211.68 21.85ZM217.62 18.51L217.62 18.51L217.62 17.03Q217.62 15.19 218.31 14.27Q219.00 13.35 220.41 13.35L220.41 13.35Q221.81 13.35 222.50 14.25Q223.19 15.14 223.20 16.93L223.20 16.93L223.20 18.41Q223.20 20.25 222.52 21.18Q221.83 22.12 220.42 22.12L220.42 22.12Q219.04 22.12 218.34 21.21Q217.64 20.29 217.62 18.51ZM219.04 16.68L219.04 18.61Q219.04 19.81 219.37 20.39Q219.71 20.98 220.42 20.98L220.42 20.98Q221.11 20.98 221.43 20.44Q221.76 19.90 221.78 18.74L221.78 18.74L221.78 16.81Q221.78 15.61 221.45 15.05Q221.12 14.49 220.41 14.49L220.41 14.49Q219.71 14.49 219.38 15.02Q219.06 15.55 219.04 16.68L219.04 16.68ZM227.83 21.85Q227.60 21.63 227.60 21.29Q227.60 20.95 227.82 20.73Q228.04 20.50 228.43 20.50L228.43 20.50Q228.83 20.50 229.05 20.73Q229.26 20.95 229.26 21.29L229.26 21.29Q229.26 21.63 229.05 21.84Q228.83 22.06 228.43 22.06L228.43 22.06Q228.05 22.06 227.83 21.85ZM233.77 18.51L233.77 18.51L233.77 17.03Q233.77 15.19 234.46 14.27Q235.14 13.35 236.56 13.35L236.56 13.35Q237.96 13.35 238.65 14.25Q239.33 15.14 239.35 16.93L239.35 16.93L239.35 18.41Q239.35 20.25 238.66 21.18Q237.97 22.12 236.57 22.12L236.57 22.12Q235.19 22.12 234.49 21.21Q233.79 20.29 233.77 18.51ZM235.19 16.68L235.19 18.61Q235.19 19.81 235.52 20.39Q235.85 20.98 236.57 20.98L236.57 20.98Q237.25 20.98 237.58 20.44Q237.91 19.90 237.93 18.74L237.93 18.74L237.93 16.81Q237.93 15.61 237.60 15.05Q237.27 14.49 236.56 14.49L236.56 14.49Q235.86 14.49 235.53 15.02Q235.20 15.55 235.19 16.68L235.19 16.68ZM243.48 24.71L243.20 23.92Q244.07 23.24 244.59 21.84Q245.10 20.45 245.10 18.65L245.10 18.65L245.10 18.52Q245.10 16.89 244.65 15.55Q244.21 14.21 243.38 13.40L243.38 13.40L243.20 13.24L243.48 12.44Q244.23 12.81 244.93 13.73Q245.63 14.66 246.01 15.80Q246.38 16.95 246.43 18.17L246.43 18.17L246.44 18.63Q246.44 19.93 246.08 21.14Q245.72 22.35 244.99 23.34Q244.27 24.33 243.48 24.71L243.48 24.71Z" fill="#FFFFFF"/><path class="svg__text" d="" fill="#FFFFFF" x="271.22"/></svg>