<svg xmlns="http://www.w3.org/2000/svg" width="287.21" height="35" viewBox="0 0 287.21 35"><rect class="svg__rect" x="0" y="0" width="287.21" height="35" fill="#D35B09"/><rect class="svg__rect" x="287.21" y="0" width="0" height="35" fill="#389AD5"/><path class="svg__text" d="M15.70 22L14.22 22L14.22 13.47L17.22 13.47Q18.69 13.47 19.50 14.13Q20.30 14.79 20.30 16.05L20.30 16.05Q20.30 16.90 19.89 17.48Q19.47 18.06 18.73 18.37L18.73 18.37L20.65 21.92L20.65 22L19.06 22L17.35 18.71L15.70 18.71L15.70 22ZM15.70 14.66L15.70 17.52L17.22 17.52Q17.97 17.52 18.39 17.15Q18.82 16.77 18.82 16.11L18.82 16.11Q18.82 15.43 18.43 15.05Q18.04 14.68 17.26 14.66L17.26 14.66L15.70 14.66ZM30.27 22L24.69 22L24.69 13.47L30.23 13.47L30.23 14.66L26.18 14.66L26.18 17.02L29.68 17.02L29.68 18.19L26.18 18.19L26.18 20.82L30.27 20.82L30.27 22ZM35.25 22L33.71 22L36.93 13.47L38.26 13.47L41.49 22L39.94 22L39.24 20.01L35.94 20.01L35.25 22ZM37.59 15.28L36.35 18.82L38.83 18.82L37.59 15.28ZM45.17 18.19L45.17 18.19L45.17 17.39Q45.17 16.19 45.60 15.27Q46.03 14.35 46.83 13.85Q47.63 13.35 48.68 13.35L48.68 13.35Q50.09 13.35 50.95 14.12Q51.81 14.89 51.95 16.29L51.95 16.29L50.48 16.29Q50.37 15.37 49.94 14.96Q49.51 14.55 48.68 14.55L48.68 14.55Q47.71 14.55 47.19 15.26Q46.67 15.96 46.66 17.33L46.66 17.33L46.66 18.09Q46.66 19.47 47.16 20.20Q47.65 20.92 48.61 20.92L48.61 20.92Q49.48 20.92 49.92 20.53Q50.36 20.14 50.48 19.22L50.48 19.22L51.95 19.22Q51.82 20.59 50.94 21.35Q50.06 22.12 48.61 22.12L48.61 22.12Q47.59 22.12 46.81 21.63Q46.03 21.15 45.61 20.26Q45.19 19.37 45.17 18.19ZM57.95 14.66L55.31 14.66L55.31 13.47L62.08 13.47L62.08 14.66L59.42 14.66L59.42 22L57.95 22L57.95 14.66ZM68.46 18.95L65.38 18.95L65.38 17.80L68.46 17.80L68.46 18.95ZM75.21 22L72.76 22L72.76 13.47L75.28 13.47Q76.41 13.47 77.28 13.97Q78.16 14.48 78.64 15.40Q79.12 16.33 79.12 17.52L79.12 17.52L79.12 17.95Q79.12 19.16 78.64 20.08Q78.15 21.00 77.26 21.50Q76.37 22 75.21 22L75.21 22ZM74.24 14.66L74.24 20.82L75.21 20.82Q76.37 20.82 77.00 20.09Q77.62 19.36 77.63 17.99L77.63 17.99L77.63 17.52Q77.63 16.13 77.03 15.40Q76.43 14.66 75.28 14.66L75.28 14.66L74.24 14.66ZM84.37 22L82.82 22L86.05 13.47L87.38 13.47L90.61 22L89.06 22L88.36 20.01L85.06 20.01L84.37 22ZM86.71 15.28L85.47 18.82L87.95 18.82L86.71 15.28ZM96.24 14.66L93.61 14.66L93.61 13.47L100.37 13.47L100.37 14.66L97.71 14.66L97.71 22L96.24 22L96.24 14.66ZM104.91 22L103.37 22L106.59 13.47L107.92 13.47L111.15 22L109.60 22L108.90 20.01L105.60 20.01L104.91 22ZM107.25 15.28L106.02 18.82L108.49 18.82L107.25 15.28ZM117.73 18.95L114.65 18.95L114.65 17.80L117.73 17.80L117.73 18.95ZM123.71 14.66L121.07 14.66L121.07 13.47L127.84 13.47L127.84 14.66L125.18 14.66L125.18 22L123.71 22L123.71 14.66ZM132.38 22L130.84 22L134.06 13.47L135.39 13.47L138.62 22L137.07 22L136.37 20.01L133.07 20.01L132.38 22ZM134.72 15.28L133.48 18.82L135.96 18.82L134.72 15.28ZM145.68 22L142.57 22L142.57 13.47L145.50 13.47Q146.94 13.47 147.70 14.05Q148.46 14.63 148.46 15.78L148.46 15.78Q148.46 16.36 148.14 16.83Q147.82 17.30 147.21 17.56L147.21 17.56Q147.90 17.75 148.28 18.26Q148.66 18.78 148.66 19.51L148.66 19.51Q148.66 20.71 147.89 21.36Q147.12 22 145.68 22L145.68 22ZM144.06 18.15L144.06 20.82L145.70 20.82Q146.40 20.82 146.79 20.47Q147.18 20.13 147.18 19.51L147.18 19.51Q147.18 18.18 145.82 18.15L145.82 18.15L144.06 18.15ZM144.06 14.66L144.06 17.06L145.51 17.06Q146.20 17.06 146.59 16.75Q146.98 16.43 146.98 15.86L146.98 15.86Q146.98 15.23 146.62 14.95Q146.26 14.66 145.50 14.66L145.50 14.66L144.06 14.66ZM158.49 22L153.13 22L153.13 13.47L154.61 13.47L154.61 20.82L158.49 20.82L158.49 22ZM168.19 22L162.61 22L162.61 13.47L168.15 13.47L168.15 14.66L164.09 14.66L164.09 17.02L167.60 17.02L167.60 18.19L164.09 18.19L164.09 20.82L168.19 20.82L168.19 22ZM175.01 18.95L171.93 18.95L171.93 17.80L175.01 17.80L175.01 18.95ZM179.04 18.19L179.04 18.19L179.04 17.39Q179.04 16.19 179.47 15.27Q179.90 14.35 180.70 13.85Q181.50 13.35 182.55 13.35L182.55 13.35Q183.96 13.35 184.82 14.12Q185.68 14.89 185.82 16.29L185.82 16.29L184.34 16.29Q184.24 15.37 183.81 14.96Q183.38 14.55 182.55 14.55L182.55 14.55Q181.58 14.55 181.06 15.26Q180.54 15.96 180.53 17.33L180.53 17.33L180.53 18.09Q180.53 19.47 181.02 20.20Q181.52 20.92 182.47 20.92L182.47 20.92Q183.35 20.92 183.79 20.53Q184.23 20.14 184.34 19.22L184.34 19.22L185.82 19.22Q185.69 20.59 184.81 21.35Q183.93 22.12 182.47 22.12L182.47 22.12Q181.46 22.12 180.68 21.63Q179.90 21.15 179.48 20.26Q179.06 19.37 179.04 18.19ZM189.86 18.00L189.86 18.00L189.86 17.52Q189.86 16.28 190.31 15.32Q190.75 14.37 191.55 13.86Q192.36 13.35 193.40 13.35Q194.45 13.35 195.25 13.85Q196.06 14.35 196.50 15.29Q196.94 16.23 196.94 17.48L196.94 17.48L196.94 17.96Q196.94 19.21 196.51 20.16Q196.07 21.10 195.27 21.61Q194.46 22.12 193.41 22.12L193.41 22.12Q192.38 22.12 191.57 21.61Q190.75 21.10 190.31 20.17Q189.87 19.23 189.86 18.00ZM191.35 17.46L191.35 17.96Q191.35 19.36 191.89 20.13Q192.44 20.90 193.41 20.90L193.41 20.90Q194.40 20.90 194.93 20.15Q195.46 19.40 195.46 17.96L195.46 17.96L195.46 17.51Q195.46 16.09 194.92 15.34Q194.39 14.58 193.40 14.58L193.40 14.58Q192.44 14.58 191.90 15.33Q191.36 16.09 191.35 17.46L191.35 17.46ZM202.88 22L201.41 22L201.41 13.47L203.33 13.47L205.79 20.01L208.24 13.47L210.16 13.47L210.16 22L208.68 22L208.68 19.19L208.83 15.43L206.31 22L205.25 22L202.74 15.43L202.88 19.19L202.88 22ZM216.38 22L214.90 22L214.90 13.47L218.16 13.47Q219.59 13.47 220.43 14.21Q221.28 14.96 221.28 16.18L221.28 16.18Q221.28 17.44 220.45 18.13Q219.63 18.83 218.15 18.83L218.15 18.83L216.38 18.83L216.38 22ZM216.38 14.66L216.38 17.64L218.16 17.64Q218.96 17.64 219.37 17.27Q219.79 16.90 219.79 16.19L219.79 16.19Q219.79 15.50 219.37 15.09Q218.94 14.68 218.21 14.66L218.21 14.66L216.38 14.66ZM225.29 18.00L225.29 18.00L225.29 17.52Q225.29 16.28 225.73 15.32Q226.17 14.37 226.98 13.86Q227.79 13.35 228.83 13.35Q229.87 13.35 230.68 13.85Q231.48 14.35 231.92 15.29Q232.36 16.23 232.37 17.48L232.37 17.48L232.37 17.96Q232.37 19.21 231.93 20.16Q231.50 21.10 230.69 21.61Q229.89 22.12 228.84 22.12L228.84 22.12Q227.80 22.12 226.99 21.61Q226.18 21.10 225.74 20.17Q225.30 19.23 225.29 18.00ZM226.77 17.46L226.77 17.96Q226.77 19.36 227.32 20.13Q227.87 20.90 228.84 20.90L228.84 20.90Q229.82 20.90 230.35 20.15Q230.89 19.40 230.89 17.96L230.89 17.96L230.89 17.51Q230.89 16.09 230.35 15.34Q229.81 14.58 228.83 14.58L228.83 14.58Q227.87 14.58 227.33 15.33Q226.78 16.09 226.77 17.46L226.77 17.46ZM238.31 22L236.83 22L236.83 13.47L238.31 13.47L242.13 19.54L242.13 13.47L243.60 13.47L243.60 22L242.12 22L238.31 15.95L238.31 22ZM253.92 22L248.34 22L248.34 13.47L253.88 13.47L253.88 14.66L249.82 14.66L249.82 17.02L253.33 17.02L253.33 18.19L249.82 18.19L249.82 20.82L253.92 20.82L253.92 22ZM259.60 22L258.11 22L258.11 13.47L259.60 13.47L263.41 19.54L263.41 13.47L264.88 13.47L264.88 22L263.40 22L259.60 15.95L259.60 22ZM271.30 14.66L268.67 14.66L268.67 13.47L275.43 13.47L275.43 14.66L272.77 14.66L272.77 22L271.30 22L271.30 14.66Z" fill="#FFFFFF"/><path class="svg__text" d="" fill="#FFFFFF" x="300.21"/></svg>