<svg xmlns="http://www.w3.org/2000/svg" width="176.16" height="35" viewBox="0 0 176.16 35"><rect class="svg__rect" x="0" y="0" width="176.16" height="35" fill="#2F6209"/><rect class="svg__rect" x="176.16" y="0" width="0" height="35" fill="#8FC965"/><path class="svg__text" d="M15.70 22L14.22 22L14.22 13.47L17.22 13.47Q18.69 13.47 19.50 14.13Q20.30 14.79 20.30 16.05L20.30 16.05Q20.30 16.90 19.89 17.48Q19.47 18.06 18.73 18.37L18.73 18.37L20.65 21.92L20.65 22L19.06 22L17.35 18.71L15.70 18.71L15.70 22ZM15.70 14.66L15.70 17.52L17.22 17.52Q17.97 17.52 18.39 17.15Q18.82 16.77 18.82 16.11L18.82 16.11Q18.82 15.43 18.43 15.05Q18.04 14.68 17.26 14.66L17.26 14.66L15.70 14.66ZM30.27 22L24.69 22L24.69 13.47L30.23 13.47L30.23 14.66L26.18 14.66L26.18 17.02L29.68 17.02L29.68 18.19L26.18 18.19L26.18 20.82L30.27 20.82L30.27 22ZM35.25 22L33.71 22L36.93 13.47L38.26 13.47L41.49 22L39.94 22L39.24 20.01L35.94 20.01L35.25 22ZM37.59 15.28L36.35 18.82L38.83 18.82L37.59 15.28ZM45.17 18.19L45.17 18.19L45.17 17.39Q45.17 16.19 45.60 15.27Q46.03 14.35 46.83 13.85Q47.63 13.35 48.68 13.35L48.68 13.35Q50.09 13.35 50.95 14.12Q51.81 14.89 51.95 16.29L51.95 16.29L50.48 16.29Q50.37 15.37 49.94 14.96Q49.51 14.55 48.68 14.55L48.68 14.55Q47.71 14.55 47.19 15.26Q46.67 15.96 46.66 17.33L46.66 17.33L46.66 18.09Q46.66 19.47 47.16 20.20Q47.65 20.92 48.61 20.92L48.61 20.92Q49.48 20.92 49.92 20.53Q50.36 20.14 50.48 19.22L50.48 19.22L51.95 19.22Q51.82 20.59 50.94 21.35Q50.06 22.12 48.61 22.12L48.61 22.12Q47.59 22.12 46.81 21.63Q46.03 21.15 45.61 20.26Q45.19 19.37 45.17 18.19ZM57.95 14.66L55.31 14.66L55.31 13.47L62.08 13.47L62.08 14.66L59.42 14.66L59.42 22L57.95 22L57.95 14.66ZM68.46 18.95L65.38 18.95L65.38 17.80L68.46 17.80L68.46 18.95ZM74.24 22L72.76 22L72.76 13.47L74.24 13.47L74.24 17.02L78.06 17.02L78.06 13.47L79.53 13.47L79.53 22L78.06 22L78.06 18.21L74.24 18.21L74.24 22ZM84.00 18.00L84.00 18.00L84.00 17.52Q84.00 16.28 84.44 15.32Q84.89 14.37 85.69 13.86Q86.50 13.35 87.54 13.35Q88.58 13.35 89.39 13.85Q90.20 14.35 90.64 15.29Q91.07 16.23 91.08 17.48L91.08 17.48L91.08 17.96Q91.08 19.21 90.65 20.16Q90.21 21.10 89.41 21.61Q88.60 22.12 87.55 22.12L87.55 22.12Q86.52 22.12 85.70 21.61Q84.89 21.10 84.45 20.17Q84.01 19.23 84.00 18.00ZM85.48 17.46L85.48 17.96Q85.48 19.36 86.03 20.13Q86.58 20.90 87.55 20.90L87.55 20.90Q88.54 20.90 89.07 20.15Q89.60 19.40 89.60 17.96L89.60 17.96L89.60 17.51Q89.60 16.09 89.06 15.34Q88.53 14.58 87.54 14.58L87.54 14.58Q86.58 14.58 86.04 15.33Q85.50 16.09 85.48 17.46L85.48 17.46ZM95.28 18.00L95.28 18.00L95.28 17.52Q95.28 16.28 95.72 15.32Q96.16 14.37 96.97 13.86Q97.77 13.35 98.81 13.35Q99.86 13.35 100.66 13.85Q101.47 14.35 101.91 15.29Q102.35 16.23 102.35 17.48L102.35 17.48L102.35 17.96Q102.35 19.21 101.92 20.16Q101.49 21.10 100.68 21.61Q99.88 22.12 98.83 22.12L98.83 22.12Q97.79 22.12 96.98 21.61Q96.17 21.10 95.72 20.17Q95.28 19.23 95.28 18.00ZM96.76 17.46L96.76 17.96Q96.76 19.36 97.31 20.13Q97.85 20.90 98.83 20.90L98.83 20.90Q99.81 20.90 100.34 20.15Q100.87 19.40 100.87 17.96L100.87 17.96L100.87 17.51Q100.87 16.09 100.34 15.34Q99.80 14.58 98.81 14.58L98.81 14.58Q97.85 14.58 97.31 15.33Q96.77 16.09 96.76 17.46L96.76 17.46ZM108.30 22L106.82 22L106.82 13.47L108.30 13.47L108.30 17.47L109.12 16.46L111.62 13.47L113.41 13.47L110.24 17.25L113.59 22L111.83 22L109.27 18.31L108.30 19.34L108.30 22ZM120.00 18.95L116.92 18.95L116.92 17.80L120.00 17.80L120.00 18.95ZM125.78 22L124.30 22L124.30 13.47L129.72 13.47L129.72 14.66L125.78 14.66L125.78 17.20L129.21 17.20L129.21 18.38L125.78 18.38L125.78 22ZM133.61 18.00L133.61 18.00L133.61 17.52Q133.61 16.28 134.05 15.32Q134.49 14.37 135.30 13.86Q136.10 13.35 137.15 13.35Q138.19 13.35 139.00 13.85Q139.80 14.35 140.24 15.29Q140.68 16.23 140.69 17.48L140.69 17.48L140.69 17.96Q140.69 19.21 140.25 20.16Q139.82 21.10 139.01 21.61Q138.21 22.12 137.16 22.12L137.16 22.12Q136.12 22.12 135.31 21.61Q134.50 21.10 134.06 20.17Q133.61 19.23 133.61 18.00ZM135.09 17.46L135.09 17.96Q135.09 19.36 135.64 20.13Q136.19 20.90 137.16 20.90L137.16 20.90Q138.14 20.90 138.67 20.15Q139.20 19.40 139.20 17.96L139.20 17.96L139.20 17.51Q139.20 16.09 138.67 15.34Q138.13 14.58 137.15 14.58L137.15 14.58Q136.19 14.58 135.64 15.33Q135.10 16.09 135.09 17.46L135.09 17.46ZM146.63 22L145.15 22L145.15 13.47L148.15 13.47Q149.63 13.47 150.43 14.13Q151.23 14.79 151.23 16.05L151.23 16.05Q151.23 16.90 150.82 17.48Q150.41 18.06 149.67 18.37L149.67 18.37L151.58 21.92L151.58 22L150.00 22L148.29 18.71L146.63 18.71L146.63 22ZM146.63 14.66L146.63 17.52L148.16 17.52Q148.91 17.52 149.33 17.15Q149.75 16.77 149.75 16.11L149.75 16.11Q149.75 15.43 149.36 15.05Q148.97 14.68 148.20 14.66L148.20 14.66L146.63 14.66ZM157.10 22L155.63 22L155.63 13.47L157.55 13.47L160.01 20.01L162.47 13.47L164.38 13.47L164.38 22L162.90 22L162.90 19.19L163.05 15.43L160.53 22L159.47 22L156.96 15.43L157.10 19.19L157.10 22Z" fill="#FFFFFF"/><path class="svg__text" d="" fill="#FFFFFF" x="189.16"/></svg>