<svg xmlns="http://www.w3.org/2000/svg" width="196.6" height="35" viewBox="0 0 196.6 35"><rect class="svg__rect" x="0" y="0" width="196.6" height="35" fill="#EA4560"/><rect class="svg__rect" x="196.6" y="0" width="0" height="35" fill="#389AD5"/><path class="svg__text" d="M15.70 22L14.22 22L14.22 13.47L17.22 13.47Q18.69 13.47 19.50 14.13Q20.30 14.79 20.30 16.05L20.30 16.05Q20.30 16.90 19.89 17.48Q19.47 18.06 18.73 18.37L18.73 18.37L20.65 21.92L20.65 22L19.06 22L17.35 18.71L15.70 18.71L15.70 22ZM15.70 14.66L15.70 17.52L17.22 17.52Q17.97 17.52 18.39 17.15Q18.82 16.77 18.82 16.11L18.82 16.11Q18.82 15.43 18.43 15.05Q18.04 14.68 17.26 14.66L17.26 14.66L15.70 14.66ZM30.27 22L24.69 22L24.69 13.47L30.23 13.47L30.23 14.66L26.18 14.66L26.18 17.02L29.68 17.02L29.68 18.19L26.18 18.19L26.18 20.82L30.27 20.82L30.27 22ZM35.25 22L33.71 22L36.93 13.47L38.26 13.47L41.49 22L39.94 22L39.24 20.01L35.94 20.01L35.25 22ZM37.59 15.28L36.35 18.82L38.83 18.82L37.59 15.28ZM45.17 18.19L45.17 18.19L45.17 17.39Q45.17 16.19 45.60 15.27Q46.03 14.35 46.83 13.85Q47.63 13.35 48.68 13.35L48.68 13.35Q50.09 13.35 50.95 14.12Q51.81 14.89 51.95 16.29L51.95 16.29L50.48 16.29Q50.37 15.37 49.94 14.96Q49.51 14.55 48.68 14.55L48.68 14.55Q47.71 14.55 47.19 15.26Q46.67 15.96 46.66 17.33L46.66 17.33L46.66 18.09Q46.66 19.47 47.16 20.20Q47.65 20.92 48.61 20.92L48.61 20.92Q49.48 20.92 49.92 20.53Q50.36 20.14 50.48 19.22L50.48 19.22L51.95 19.22Q51.82 20.59 50.94 21.35Q50.06 22.12 48.61 22.12L48.61 22.12Q47.59 22.12 46.81 21.63Q46.03 21.15 45.61 20.26Q45.19 19.37 45.17 18.19ZM57.95 14.66L55.31 14.66L55.31 13.47L62.08 13.47L62.08 14.66L59.42 14.66L59.42 22L57.95 22L57.95 14.66ZM68.46 18.95L65.38 18.95L65.38 17.80L68.46 17.80L68.46 18.95ZM74.23 22L72.76 22L72.76 13.47L74.68 13.47L77.14 20.01L79.60 13.47L81.51 13.47L81.51 22L80.04 22L80.04 19.19L80.18 15.43L77.66 22L76.60 22L74.09 15.43L74.23 19.19L74.23 22ZM85.98 18.00L85.98 18.00L85.98 17.52Q85.98 16.28 86.43 15.32Q86.87 14.37 87.67 13.86Q88.48 13.35 89.52 13.35Q90.56 13.35 91.37 13.85Q92.18 14.35 92.62 15.29Q93.06 16.23 93.06 17.48L93.06 17.48L93.06 17.96Q93.06 19.21 92.63 20.16Q92.19 21.10 91.39 21.61Q90.58 22.12 89.53 22.12L89.53 22.12Q88.50 22.12 87.68 21.61Q86.87 21.10 86.43 20.17Q85.99 19.23 85.98 18.00ZM87.47 17.46L87.47 17.96Q87.47 19.36 88.01 20.13Q88.56 20.90 89.53 20.90L89.53 20.90Q90.52 20.90 91.05 20.15Q91.58 19.40 91.58 17.96L91.58 17.96L91.58 17.51Q91.58 16.09 91.04 15.34Q90.51 14.58 89.52 14.58L89.52 14.58Q88.56 14.58 88.02 15.33Q87.48 16.09 87.47 17.46L87.47 17.46ZM99.98 22L97.53 22L97.53 13.47L100.05 13.47Q101.18 13.47 102.05 13.97Q102.93 14.48 103.41 15.40Q103.89 16.33 103.89 17.52L103.89 17.52L103.89 17.95Q103.89 19.16 103.41 20.08Q102.92 21.00 102.03 21.50Q101.14 22 99.98 22L99.98 22ZM99.01 14.66L99.01 20.82L99.97 20.82Q101.14 20.82 101.77 20.09Q102.39 19.36 102.40 17.99L102.40 17.99L102.40 17.52Q102.40 16.13 101.80 15.40Q101.19 14.66 100.05 14.66L100.05 14.66L99.01 14.66ZM109.13 22L107.59 22L110.81 13.47L112.14 13.47L115.37 22L113.83 22L113.13 20.01L109.82 20.01L109.13 22ZM111.48 15.28L110.24 18.82L112.71 18.82L111.48 15.28ZM124.68 22L119.33 22L119.33 13.47L120.81 13.47L120.81 20.82L124.68 20.82L124.68 22ZM131.43 18.95L128.36 18.95L128.36 17.80L131.43 17.80L131.43 18.95ZM137.22 22L135.73 22L135.73 13.47L137.22 13.47L137.22 17.02L141.03 17.02L141.03 13.47L142.51 13.47L142.51 22L141.03 22L141.03 18.21L137.22 18.21L137.22 22ZM148.73 22L147.25 22L147.25 13.47L150.25 13.47Q151.72 13.47 152.53 14.13Q153.33 14.79 153.33 16.05L153.33 16.05Q153.33 16.90 152.92 17.48Q152.50 18.06 151.77 18.37L151.77 18.37L153.68 21.92L153.68 22L152.09 22L150.38 18.71L148.73 18.71L148.73 22ZM148.73 14.66L148.73 17.52L150.25 17.52Q151.00 17.52 151.43 17.15Q151.85 16.77 151.85 16.11L151.85 16.11Q151.85 15.43 151.46 15.05Q151.07 14.68 150.30 14.66L150.30 14.66L148.73 14.66ZM159.21 22L157.72 22L157.72 13.47L159.21 13.47L163.02 19.54L163.02 13.47L164.49 13.47L164.49 22L163.01 22L159.21 15.95L159.21 22ZM174.81 22L169.23 22L169.23 13.47L174.77 13.47L174.77 14.66L170.72 14.66L170.72 17.02L174.22 17.02L174.22 18.19L170.72 18.19L170.72 20.82L174.81 20.82L174.81 22ZM180.69 14.66L178.05 14.66L178.05 13.47L184.82 13.47L184.82 14.66L182.16 14.66L182.16 22L180.69 22L180.69 14.66Z" fill="#FFFFFF"/><path class="svg__text" d="" fill="#FFFFFF" x="209.6"/></svg>