<svg xmlns="http://www.w3.org/2000/svg" width="148.78" height="35" viewBox="0 0 148.78 35"><rect class="svg__rect" x="0" y="0" width="148.78" height="35" fill="#2F6209"/><rect class="svg__rect" x="148.78" y="0" width="0" height="35" fill="#8FC965"/><path class="svg__text" d="M15.70 22L14.22 22L14.22 13.47L17.22 13.47Q18.69 13.47 19.50 14.13Q20.30 14.79 20.30 16.05L20.30 16.05Q20.30 16.90 19.89 17.48Q19.47 18.06 18.73 18.37L18.73 18.37L20.65 21.92L20.65 22L19.06 22L17.35 18.71L15.70 18.71L15.70 22ZM15.70 14.66L15.70 17.52L17.22 17.52Q17.97 17.52 18.39 17.15Q18.82 16.77 18.82 16.11L18.82 16.11Q18.82 15.43 18.43 15.05Q18.04 14.68 17.26 14.66L17.26 14.66L15.70 14.66ZM30.27 22L24.69 22L24.69 13.47L30.23 13.47L30.23 14.66L26.18 14.66L26.18 17.02L29.68 17.02L29.68 18.19L26.18 18.19L26.18 20.82L30.27 20.82L30.27 22ZM36.92 22L34.47 22L34.47 13.47L36.99 13.47Q38.12 13.47 38.99 13.97Q39.87 14.48 40.35 15.40Q40.83 16.33 40.83 17.52L40.83 17.52L40.83 17.95Q40.83 19.16 40.35 20.08Q39.86 21.00 38.97 21.50Q38.08 22 36.92 22L36.92 22ZM35.95 14.66L35.95 20.82L36.92 20.82Q38.08 20.82 38.71 20.09Q39.33 19.36 39.34 17.99L39.34 17.99L39.34 17.52Q39.34 16.13 38.74 15.40Q38.14 14.66 36.99 14.66L36.99 14.66L35.95 14.66ZM45.16 19.16L45.16 19.16L45.16 13.47L46.64 13.47L46.64 19.18Q46.64 20.03 47.07 20.48Q47.50 20.93 48.35 20.93L48.35 20.93Q50.06 20.93 50.06 19.13L50.06 19.13L50.06 13.47L51.54 13.47L51.54 19.17Q51.54 20.53 50.67 21.32Q49.80 22.12 48.35 22.12L48.35 22.12Q46.88 22.12 46.02 21.33Q45.16 20.55 45.16 19.16ZM57.20 22L55.48 22L58.12 17.70L55.54 13.47L57.25 13.47L59.04 16.55L60.83 13.47L62.55 13.47L59.97 17.70L62.60 22L60.88 22L59.04 18.87L57.20 22ZM74.35 14.66L71.71 14.66L71.71 13.47L78.48 13.47L78.48 14.66L75.82 14.66L75.82 22L74.35 22L74.35 14.66ZM81.96 18.00L81.96 18.00L81.96 17.52Q81.96 16.28 82.41 15.32Q82.85 14.37 83.65 13.86Q84.46 13.35 85.50 13.35Q86.55 13.35 87.35 13.85Q88.16 14.35 88.60 15.29Q89.04 16.23 89.04 17.48L89.04 17.48L89.04 17.96Q89.04 19.21 88.61 20.16Q88.17 21.10 87.37 21.61Q86.56 22.12 85.51 22.12L85.51 22.12Q84.48 22.12 83.67 21.61Q82.85 21.10 82.41 20.17Q81.97 19.23 81.96 18.00ZM83.45 17.46L83.45 17.96Q83.45 19.36 83.99 20.13Q84.54 20.90 85.51 20.90L85.51 20.90Q86.50 20.90 87.03 20.15Q87.56 19.40 87.56 17.96L87.56 17.96L87.56 17.51Q87.56 16.09 87.02 15.34Q86.49 14.58 85.50 14.58L85.50 14.58Q84.54 14.58 84.00 15.33Q83.46 16.09 83.45 17.46L83.45 17.46ZM93.24 18.00L93.24 18.00L93.24 17.52Q93.24 16.28 93.68 15.32Q94.12 14.37 94.93 13.86Q95.73 13.35 96.78 13.35Q97.82 13.35 98.62 13.85Q99.43 14.35 99.87 15.29Q100.31 16.23 100.31 17.48L100.31 17.48L100.31 17.96Q100.31 19.21 99.88 20.16Q99.45 21.10 98.64 21.61Q97.84 22.12 96.79 22.12L96.79 22.12Q95.75 22.12 94.94 21.61Q94.13 21.10 93.68 20.17Q93.24 19.23 93.24 18.00ZM94.72 17.46L94.72 17.96Q94.72 19.36 95.27 20.13Q95.81 20.90 96.79 20.90L96.79 20.90Q97.77 20.90 98.30 20.15Q98.83 19.40 98.83 17.96L98.83 17.96L98.83 17.51Q98.83 16.09 98.30 15.34Q97.76 14.58 96.78 14.58L96.78 14.58Q95.81 14.58 95.27 15.33Q94.73 16.09 94.72 17.46L94.72 17.46ZM110.14 22L104.78 22L104.78 13.47L106.26 13.47L106.26 20.82L110.14 20.82L110.14 22ZM115.74 22L114.26 22L114.26 13.47L115.74 13.47L115.74 17.47L116.56 16.46L119.06 13.47L120.85 13.47L117.68 17.25L121.03 22L119.28 22L116.71 18.31L115.74 19.34L115.74 22ZM126.38 22L124.90 22L124.90 13.47L126.38 13.47L126.38 22ZM132.87 14.66L130.23 14.66L130.23 13.47L137.00 13.47L137.00 14.66L134.34 14.66L134.34 22L132.87 22L132.87 14.66Z" fill="#FFFFFF"/><path class="svg__text" d="" fill="#FFFFFF" x="161.78"/></svg>